<svg xmlns="http://www.w3.org/2000/svg" viewBox="0 0 368.2 245.92"><defs><style>.cls-1{fill:#f39800;}</style></defs><title>Asset 1</title><g id="Layer_2" data-name="Layer 2"><g id="Layer_1-2" data-name="Layer 1"><path class="cls-1" d="M184.32,92.13q76,0,152,0a84.67,84.67,0,0,1,12.92,1c10.2,1.6,16.59,7.09,18,17.29a88,88,0,0,1,.15,24.26c-1.62,11.35-8,17.35-19.39,18.07-15.6,1-31.28,1-46.92,1q-134.23.11-268.45,0a88.08,88.08,0,0,1-12.44-.88c-10.86-1.56-17.22-6.84-18.82-17.65a84.11,84.11,0,0,1,0-24.25C3,99.87,9.25,94,20.42,93.18c14.26-1,28.61-1,42.92-1,40.33-.12,80.65,0,121,0Z"/><path class="cls-1" d="M184.62,0q75.48,0,151,0a89,89,0,0,1,13.42,1c10.58,1.63,16.69,6.89,18.26,17.54a83.52,83.52,0,0,1,.16,23.77C365.75,54.08,359,60,347.22,60.8c-11.61.8-23.3.85-34.95.86q-139,.09-277.94,0a116,116,0,0,1-13.45-.83C9.75,59.52,3,53.91,1.3,42.76A77.88,77.88,0,0,1,1,20C3,6.33,11.29.37,27.15.14,43.48-.09,59.81,0,76.14,0Z"/><path class="cls-1" d="M184.32,245.91q-76.74,0-153.47,0C8.27,245.93,0,237.73,0,215.25c0-22.69,7.91-30.94,30.59-31q154-.13,307.95,0a67.39,67.39,0,0,1,10.45.9c10.19,1.61,16.76,7,18.15,17.18a101.29,101.29,0,0,1,0,25.72c-1.18,9.67-8,15.25-17.44,16.66a137,137,0,0,1-19.91,1.1Q257.05,246,184.32,245.91Z"/></g></g></svg>