<svg xmlns="http://www.w3.org/2000/svg" viewBox="0 0 244.2 57.69"><defs><style>.cls-1{fill:#202f7a;}.cls-2{fill:#c25223;}.cls-3{fill:#fff;}.cls-10,.cls-4,.cls-5,.cls-6{isolation:isolate;}.cls-4,.cls-5,.cls-6{font-size:20.49px;fill:#231815;font-family:SourceSansPro-Bold, Source Sans Pro;font-weight:700;}.cls-5{letter-spacing:-0.03em;}.cls-6{letter-spacing:-0.01em;}.cls-7{letter-spacing:-0.02em;}.cls-8{letter-spacing:0em;}.cls-9{letter-spacing:-0.02em;}.cls-11{fill:none;stroke:#1b2243;stroke-linecap:round;stroke-linejoin:round;stroke-width:2px;}</style></defs><title>LOGO</title><g id="Layer_2" data-name="Layer 2"><g id="Layer_1-2" data-name="Layer 1"><path class="cls-1" d="M26.21,14.48a11.2,11.2,0,0,1,0,15.84h0l8,7.18a22.24,22.24,0,0,0,6.47-15.1c0-.47-.21-9.49-6.56-15.84a22.41,22.41,0,0,0-31.69,0l7.92,7.92a11.2,11.2,0,0,1,15.84,0Z"/><path class="cls-2" d="M25,25.75a7.08,7.08,0,0,1-12,0,7,7,0,0,1,0-7.45,7.08,7.08,0,0,1,12,0A7,7,0,0,1,25,25.75Z"/><path class="cls-1" d="M16.24,41.56l8.26-9a.06.06,0,0,1,.08,0h0L44,50.37a.06.06,0,0,1,0,.08h0l-1.83,2A9.55,9.55,0,0,1,28.69,53L16.28,41.6a.06.06,0,0,1,0-.08h0Z"/><path class="cls-1" d="M.09,8.5h0A.1.1,0,0,0,0,8.61H0V43c0,6.2,4.48,11.22,10,11.24l.12-.11L10.05,25.8V18.65Z"/><circle class="cls-3" cx="21.89" cy="20.89" r="1.82"/><text class="cls-4" transform="translate(64.65 26.77)">RIC</text><text class="cls-5" transform="translate(95.29 26.77)">K</text><text class="cls-6" transform="translate(107.32 26.77)">Y</text><text class="cls-4" transform="translate(117.95 26.77)">’S </text><text class="cls-4" transform="translate(64.65 49.82)">AWESOME FE<tspan class="cls-7" x="117.82" y="0">S</tspan><tspan class="cls-8" x="128.76" y="0">TI</tspan><tspan class="cls-9" x="146.28" y="0">V</tspan><tspan x="157.28" y="0">AL</tspan></text><text class="cls-10"></text><text class="cls-10"></text><text class="cls-10"></text><line class="cls-11" x1="54.32" y1="10.58" x2="54.32" y2="52.21"/></g></g></svg>