<svg xmlns="http://www.w3.org/2000/svg" viewBox="0 0 289.42 116.15"><defs><style>.cls-1{fill:#202f7a;}.cls-2{fill:#c25223;}.cls-3{fill:#fff;}.cls-4{font-size:20.49px;fill:#231815;font-family:SourceSansPro-Bold, Source Sans Pro;font-weight:700;}.cls-5{letter-spacing:-0.03em;}.cls-6{letter-spacing:-0.01em;}.cls-7{letter-spacing:-0.02em;}.cls-8{letter-spacing:-0.02em;}.cls-9{fill:none;stroke:#1b2243;stroke-linecap:round;stroke-linejoin:round;stroke-width:2px;}</style></defs><title>ricky logo</title><g id="Layer_2" data-name="Layer 2"><g id="Layer_1-2" data-name="Layer 1"><path class="cls-1" d="M26.21,14.48a11.2,11.2,0,0,1,0,15.84l8,7.18a22.24,22.24,0,0,0,6.47-15.1c0-.47-.21-9.49-6.56-15.84a22.41,22.41,0,0,0-31.69,0l7.92,7.92A11.2,11.2,0,0,1,26.21,14.48Z"/><path class="cls-2" d="M25,25.75a7.08,7.08,0,0,1-12,0,7,7,0,0,1,0-7.45,7.08,7.08,0,0,1,12,0A7,7,0,0,1,25,25.75Z"/><path class="cls-1" d="M24,32.77H36.21a.06.06,0,0,1,.06.06V59.16a.06.06,0,0,1-.06.06h-2.7A9.55,9.55,0,0,1,24,49.67V32.82a.06.06,0,0,1,.06-.06Z" transform="translate(-24.13 37.08) rotate(-47.45)"/><path class="cls-1" d="M.09,8.5h0A.1.1,0,0,0,0,8.61V43c0,6.2,4.48,11.22,10,11.24l.12-.11-.07-28.33,0-7.15Z"/><circle class="cls-3" cx="21.89" cy="20.89" r="1.82"/><text class="cls-4" transform="translate(64.65 26.77)">RIC<tspan class="cls-5" x="30.64" y="0">K</tspan><tspan class="cls-6" x="42.67" y="0">Y</tspan><tspan x="53.3" y="0">’S </tspan><tspan x="0" y="23.05">AWSOME FE</tspan><tspan class="cls-7" x="106.64" y="23.05">S</tspan><tspan x="117.58" y="23.05">TI</tspan><tspan class="cls-8" x="135.11" y="23.05">V</tspan><tspan x="146.11" y="23.05">AL</tspan></text><line class="cls-9" x1="54.32" y1="10.58" x2="54.32" y2="52.21"/></g></g></svg>